<svg width="80" height="60" viewBox="0 0 28 21" fill="none" xmlns="http://www.w3.org/2000/svg">
<path fill-rule="evenodd" clip-rule="evenodd" d="M10 16.0659C10.426 16.9067 10.9853 17.6831 11.6643 18.3621C13.3522 20.0499 15.6414 20.9981 18.0283 20.9981C20.4152 20.9981 22.7044 20.0499 24.3923 18.3621C26.0801 16.6742 27.0283 14.3851 27.0283 11.9981C27.0283 9.61116 26.0801 7.32198 24.3923 5.63415C22.748 3.98986 20.533 3.04753 18.2128 3L17.3483 4.37538V7.27811H15.5237L14.6752 8.62811H17.3483V11.3281H13.7283C13.7492 10.8523 13.7967 10.3783 13.8704 9.90844L12.1294 12.6781H12.6483C12.6883 13.5881 12.8153 14.4921 13.0283 15.3781H10.8683C10.8045 15.2437 10.7447 15.1076 10.6888 14.9701L10 16.0659ZM18.7083 4.18811V7.27811L21.4683 7.26811C21.3143 6.89611 21.1333 6.53511 20.9283 6.18811C20.4639 5.26773 19.672 4.55433 18.7083 4.18811ZM22.3383 11.3281C22.2983 10.4161 22.1603 9.51111 21.9283 8.62811H18.7083V11.3281H22.3383ZM17.3483 12.6781H13.7283C13.7689 13.5901 13.9063 14.4952 14.1383 15.3781H17.3483V12.6781ZM17.3583 19.7681V16.6781L14.5983 16.6881C14.7526 17.0604 14.933 17.4213 15.1383 17.7681C15.6027 18.6885 16.3946 19.4019 17.3583 19.7681ZM18.7083 16.7281V19.7681V19.8081C19.672 19.4419 20.4639 18.7285 20.9283 17.8081C21.1336 17.4613 21.314 17.1004 21.4683 16.7281H18.7083ZM18.7083 12.6281V15.3281H21.9183C22.1503 14.4452 22.2877 13.5401 22.3283 12.6281H18.7083ZM25.9283 12.6281H23.4183L23.4083 12.6781C23.3653 13.5711 23.2383 14.4581 23.0283 15.3281H25.1983C25.6011 14.479 25.8483 13.5645 25.9283 12.6281ZM23.0283 8.62811C23.2419 9.4971 23.3725 10.3844 23.4183 11.2781L25.9183 11.3281C25.8383 10.3921 25.5913 9.47811 25.1883 8.62811H23.0283ZM22.6283 7.27811H24.3783C23.5636 6.18416 22.4827 5.31669 21.2383 4.75811C21.835 5.51734 22.3044 6.36841 22.6283 7.27811ZM11.7004 16.7581H13.4283C13.7522 17.6678 14.2216 18.5189 14.8183 19.2781C13.5818 18.7163 12.5089 17.849 11.7004 16.7581ZM21.2707 19.2237C22.497 18.6759 23.5657 17.828 24.3783 16.7581H22.6183C22.3021 17.6461 21.8473 18.4783 21.2707 19.2237Z" fill="black"/>
<path fill-rule="evenodd" clip-rule="evenodd" d="M8.26876 15.6821C8.09634 15.4973 8 15.2536 8 15V1C8 0.734784 8.10536 0.48043 8.29289 0.292893C8.48043 0.105357 8.73478 0 9 0H15C15.2652 0 15.5196 0.105357 15.7071 0.292893C15.8946 0.48043 16 0.734784 16 1V2.42857L9.1847 14.1119C9.17142 14.1227 9.15865 14.1342 9.14645 14.1464C9.07258 14.2203 9.02422 14.3149 9.00701 14.4166L8.26876 15.6821ZM9.14645 1.14645C9.24021 1.05268 9.36739 1 9.5 1H14.5C14.6326 1 14.7598 1.05268 14.8536 1.14645C14.9473 1.24021 15 1.36739 15 1.5C15 1.63261 14.9473 1.75979 14.8536 1.85355C14.7598 1.94732 14.6326 2 14.5 2H9.5C9.36739 2 9.24021 1.94732 9.14645 1.85355C9.05268 1.75979 9 1.63261 9 1.5C9 1.36739 9.05268 1.24021 9.14645 1.14645ZM9.14645 3.85355C9.05268 3.75979 9 3.63261 9 3.5C9 3.36739 9.05268 3.24021 9.14645 3.14645C9.24021 3.05268 9.36739 3 9.5 3H14.5C14.6326 3 14.7598 3.05268 14.8536 3.14645C14.9473 3.24021 15 3.36739 15 3.5C15 3.63261 14.9473 3.75979 14.8536 3.85355C14.7598 3.94732 14.6326 4 14.5 4H9.5C9.36739 4 9.24021 3.94732 9.14645 3.85355ZM0.43934 2.43934C0.720644 2.15804 1.10218 2 1.5 2H7V3H1.5C1.36739 3 1.24021 3.05268 1.14645 3.14645C1.05268 3.24021 1 3.36739 1 3.5V10.5C1 10.6326 1.05268 10.7598 1.14645 10.8536C1.24021 10.9473 1.36739 11 1.5 11H7V15H5.5C5.36739 15 5.24021 14.9473 5.14645 14.8536C5.05268 14.7598 5 14.6326 5 14.5C5 14.3674 5.05268 14.2402 5.14645 14.1464C5.24021 14.0527 5.36739 14 5.5 14H6V12H1.5C1.10218 12 0.720644 11.842 0.43934 11.5607C0.158035 11.2794 0 10.8978 0 10.5V3.5C0 3.10218 0.158035 2.72064 0.43934 2.43934Z" fill="black"/>
</svg>
